<?xml version="1.0" encoding="UTF-8" standalone="no"?>
<svg
   viewBox="0 0 465.32997 224.00001"
   version="1.1"
   id="svg940"
   sodipodi:docname="logo.svg"
   inkscape:version="1.1.1 (3bf5ae0d25, 2021-09-20)"
   xmlns:inkscape="http://www.inkscape.org/namespaces/inkscape"
   xmlns:sodipodi="http://sodipodi.sourceforge.net/DTD/sodipodi-0.dtd"
   xmlns="http://www.w3.org/2000/svg"
   xmlns:svg="http://www.w3.org/2000/svg">
  <sodipodi:namedview
     id="namedview942"
     pagecolor="#ffffff"
     bordercolor="#666666"
     borderopacity="1.0"
     inkscape:pageshadow="2"
     inkscape:pageopacity="1"
     inkscape:pagecheckerboard="0"
     showgrid="false"
     height="224px"
     inkscape:zoom="4.3012821"
     inkscape:cx="191.22205"
     inkscape:cy="35.338301"
     inkscape:window-width="3840"
     inkscape:window-height="2050"
     inkscape:window-x="-12"
     inkscape:window-y="-12"
     inkscape:window-maximized="1"
     inkscape:current-layer="svg940" />
  <defs
     id="defs914">
    <style
       id="style884">
      .a {
        fill: #76b3e1;
      }

      .b, .d {
        isolation: isolate;
        opacity: 0.3;
      }

      .b {
        fill: url(#a);
      }

      .c {
        fill: #518ac8;
      }

      .d {
        fill: url(#b);
      }

      .e {
        fill: url(#c);
      }

      .f {
        fill: url(#d);
      }

      .g {
        fill: #58595b;
      }
    </style>
    <linearGradient
       id="a"
       x1="11.67"
       y1="73.360001"
       x2="70.610001"
       y2="44.720001"
       gradientTransform="matrix(1,0,0,-1,0,73.4)"
       gradientUnits="userSpaceOnUse">
      <stop
         offset="0.1"
         stop-color="#76b3e1"
         id="stop886" />
      <stop
         offset="0.3"
         stop-color="#dcf2fd"
         id="stop888" />
      <stop
         offset="1"
         stop-color="#76b3e1"
         id="stop890" />
    </linearGradient>
    <linearGradient
       id="b"
       x1="44"
       y1="59.330002"
       x2="33.68"
       y2="24.959999"
       gradientTransform="matrix(1,0,0,-1,0,73.4)"
       gradientUnits="userSpaceOnUse">
      <stop
         offset="0"
         stop-color="#76b3e1"
         id="stop893" />
      <stop
         offset="0.5"
         stop-color="#4377bb"
         id="stop895" />
      <stop
         offset="1"
         stop-color="#1f3b77"
         id="stop897" />
    </linearGradient>
    <linearGradient
       id="c"
       x1="7.3400002"
       y1="44.34"
       x2="66.940002"
       y2="3.8199999"
       gradientTransform="matrix(1,0,0,-1,0,73.4)"
       gradientUnits="userSpaceOnUse">
      <stop
         offset="0"
         stop-color="#315aa9"
         id="stop900" />
      <stop
         offset="0.5"
         stop-color="#518ac8"
         id="stop902" />
      <stop
         offset="1"
         stop-color="#315aa9"
         id="stop904" />
    </linearGradient>
    <linearGradient
       id="d"
       x1="34.25"
       y1="39.490002"
       x2="10.2"
       y2="-48.700001"
       gradientTransform="matrix(1,0,0,-1,0,73.4)"
       gradientUnits="userSpaceOnUse">
      <stop
         offset="0"
         stop-color="#4377bb"
         id="stop907" />
      <stop
         offset="0.5"
         stop-color="#1a336b"
         id="stop909" />
      <stop
         offset="1"
         stop-color="#1a336b"
         id="stop911" />
    </linearGradient>
  </defs>
  <g
     id="g1036"
     transform="translate(57.391967,76.65)">
    <g
       id="g928">
      <path
         class="a"
         d="m 75.81,15.35 c 0,0 -24.95,-18.84 -44.31,-14.44 L 29.8,1.38 A 12.35,12.35 0 0 0 23.22,6 11.18,11.18 0 0 0 22.51,7.18 l -7.15,12.15 12.35,2.41 a 22,22 0 0 0 17.61,3.46 l 22,4.3 z"
         id="path916" />
      <path
         class="b"
         d="m 75.81,15.35 c 0,0 -24.95,-18.84 -44.31,-14.44 L 29.8,1.38 A 12.35,12.35 0 0 0 23.22,6 11.18,11.18 0 0 0 22.51,7.18 l -7.15,12.15 12.35,2.41 a 22,22 0 0 0 17.61,3.46 l 22,4.3 z"
         id="path918"
         style="fill:url(#a)" />
      <path
         class="c"
         d="m 23,15.11 -1.71,0.48 c -7.9,2.55 -10.6,9.94 -6.06,16.42 a 21.12,21.12 0 0 0 22.54,7.1 L 67.29,29.5 c 0,0 -24.9,-18.79 -44.29,-14.39 z"
         id="path920" />
      <path
         class="d"
         d="m 23,15.11 -1.71,0.48 c -7.9,2.55 -10.6,9.94 -6.06,16.42 a 21.12,21.12 0 0 0 22.54,7.1 L 67.29,29.5 c 0,0 -24.9,-18.79 -44.29,-14.39 z"
         id="path922"
         style="fill:url(#b)" />
      <path
         class="e"
         d="M 61.89,36.42 A 21.11,21.11 0 0 0 39.31,29.27 l -29.49,9.56 -9.28,16.52 52.83,9 9.47,-16.85 c 1.89,-3.23 1.7,-7.3 -0.95,-11.08 z"
         id="path924"
         style="fill:url(#c)" />
      <path
         class="f"
         d="M 52.61,52.94 A 21.14,21.14 0 0 0 30.08,45.79 L 0.54,55.35 c 0,0 25,18.84 44.31,14.44 l 1.7,-0.47 c 7.91,-2.51 10.61,-9.9 6.06,-16.38 z"
         id="path926"
         style="fill:url(#d)" />
    </g>
    <g
       id="g938">
      <path
         class="g"
         d="m 109.71,45 a 12,12 0 0 0 8.1,3.4 c 3.4,0 6.2,-2 6.2,-5.4 0,-7.8 -15.5,-5.9 -15.5,-15.5 0,-4.5 4,-8.3 9.7,-8.3 a 12,12 0 0 1 8.3,3 L 125,24.8 a 10.38,10.38 0 0 0 -6.8,-2.7 c -4,0 -6.5,2.6 -6.6,5.3 0,7.4 15.5,5.3 15.5,15.5 0,4.6 -3.6,8.4 -9.4,8.4 a 13.36,13.36 0 0 1 -9.8,-4 z m 49.1,-25.6 a 15.73,15.73 0 0 1 15.8,15.9 16,16 0 0 1 -15.8,16.2 h -0.1 a 16,16 0 0 1 -15.8,-16.2 v -0.1 a 15.73,15.73 0 0 1 15.9,-15.8 z m -0.1,29.3 a 13,13 0 0 0 12.7,-13.29 V 35.3 c 0,-7.4 -5.6,-13.1 -12.6,-13.1 a 12.72,12.72 0 0 0 -12.7,13 c 0,7.6 5.6,13.4 12.6,13.5 z M 192.61,20 h 3 l -0.1,28.3 h 14.4 V 51 h -17.5 z m 33.9,0.1 h 3 l -0.1,31.1 h -3 z m 23.2,0 h 10 c 9.3,0 15.6,5.7 15.6,15.6 0,9.9 -6.3,15.5 -15.6,15.5 h -10 z m 9.6,28.4 c 7.6,0 12.7,-4.5 12.8,-12.8 0.1,-8.3 -5.1,-12.8 -12.7,-12.8 h -6.7 l -0.1,25.6 z"
         id="path930" />
      <g
         id="g936">
        <path
           class="g"
           d="m 301.48,51.2 a 10.27,10.27 0 0 0 7.06,-2.52 9,9 0 0 0 2.86,-7.1 v 0 -21.11 h -6.25 v 20.65 a 4.2,4.2 0 0 1 -1,3 3.61,3.61 0 0 1 -2.77,1.07 q -2.94,0 -4.29,-3.45 v 0 l -5.29,2.95 q 2.59,6.51 9.68,6.51 z"
           id="path932" />
        <path
           class="g"
           d="m 338.94,51.27 c 3.47,0 6.19,-0.86 8.14,-2.59 a 8.61,8.61 0 0 0 2.92,-6.79 7.09,7.09 0 0 0 -2.5,-5.67 c -1.68,-1.44 -4.37,-2.68 -8.07,-3.74 a 11.76,11.76 0 0 1 -3.76,-1.57 2.57,2.57 0 0 1 -1.1,-2.15 2.7,2.7 0 0 1 1.1,-2.25 4.6,4.6 0 0 1 2.91,-0.85 5.67,5.67 0 0 1 5.71,3.72 v 0 l 5.17,-2.83 a 10.05,10.05 0 0 0 -4.07,-4.84 12.17,12.17 0 0 0 -6.53,-1.71 11.11,11.11 0 0 0 -7.45,2.6 8.11,8.11 0 0 0 -3.09,6.55 7.5,7.5 0 0 0 2.32,5.61 q 2.08,2.1 7.37,3.69 a 16.51,16.51 0 0 1 4.52,1.82 2.33,2.33 0 0 1 1.19,2.09 2.74,2.74 0 0 1 -1.29,2.31 5.64,5.64 0 0 1 -3.3,0.91 7,7 0 0 1 -6.6,-4.23 v 0 l -5.4,2.79 a 10.85,10.85 0 0 0 4.49,5.23 13.74,13.74 0 0 0 7.32,1.9 z"
           id="path934" />
      </g>
    </g>
  </g>
</svg>
